<svg width="602" height="161" viewBox="0 0 602 161" fill="none" xmlns="http://www.w3.org/2000/svg">
<g clip-path="url(#clip0_185_314)">
<rect x="64" y="65" width="32" height="32" fill="#E63B19"/>
<path d="M48 9H128C141.255 9 152 19.7452 152 33V113" stroke="#3475D1" stroke-width="16"/>
<path d="M112 153L32 153C18.7452 153 8 142.255 8 129L8.00001 49" stroke="#3475D1" stroke-width="16"/>
<path d="M40 81V41H80" stroke="#E63B19" stroke-width="16"/>
<path d="M120 81V121H80" stroke="#E63B19" stroke-width="16"/>
<path d="M96 41H120V65" stroke="#E63B19" stroke-width="16"/>
<path d="M128 153V153C141.255 153 152 142.255 152 129V129" stroke="#3475D1" stroke-width="16"/>
<path d="M32 9V9C18.7452 9 8 19.7452 8 33V33" stroke="#3475D1" stroke-width="16"/>
<path d="M64 121H40V97" stroke="#E63B19" stroke-width="16"/>
<path d="M233.063 65.8325H237.78C242.71 65.8325 246.493 64.8125 249.128 62.7725C251.763 60.7325 253.08 57.8 253.08 53.975C253.08 50.15 251.763 47.2175 249.128 45.1775C246.493 43.1375 242.71 42.1175 237.78 42.1175H233.063V65.8325ZM288.015 119H256.905L233.063 82.025V119H208.073V22.865H246.96C252.315 22.865 256.99 23.6725 260.985 25.2875C264.98 26.8175 268.253 28.9425 270.803 31.6625C273.438 34.3825 275.393 37.5275 276.668 41.0975C278.028 44.6675 278.708 48.4925 278.708 52.5725C278.708 59.8825 276.923 65.8325 273.353 70.4225C269.868 74.9275 264.683 77.9875 257.798 79.6025L288.015 119ZM351.253 47.4725C348.533 45.2625 345.813 43.6475 343.093 42.6275C340.373 41.5225 337.738 40.97 335.188 40.97C331.958 40.97 329.323 41.735 327.283 43.265C325.243 44.795 324.223 46.7925 324.223 49.2575C324.223 50.9575 324.733 52.36 325.753 53.465C326.773 54.57 328.091 55.5475 329.706 56.3975C331.406 57.1625 333.276 57.8425 335.316 58.4375C337.441 59.0325 339.523 59.67 341.563 60.35C349.723 63.07 355.673 66.725 359.413 71.315C363.238 75.82 365.151 81.7275 365.151 89.0375C365.151 93.9675 364.301 98.43 362.601 102.425C360.986 106.42 358.563 109.862 355.333 112.752C352.188 115.557 348.278 117.725 343.603 119.255C339.013 120.87 333.786 121.678 327.921 121.678C315.766 121.678 304.503 118.065 294.133 110.84L304.843 90.695C308.583 94.01 312.281 96.475 315.936 98.09C319.591 99.705 323.203 100.512 326.773 100.512C330.853 100.512 333.871 99.5775 335.826 97.7075C337.866 95.8375 338.886 93.7125 338.886 91.3325C338.886 89.8875 338.631 88.655 338.121 87.635C337.611 86.53 336.761 85.5525 335.571 84.7025C334.381 83.7675 332.808 82.9175 330.853 82.1525C328.983 81.3875 326.688 80.5375 323.968 79.6025C320.738 78.5825 317.551 77.4775 314.406 76.2875C311.346 75.0125 308.583 73.355 306.118 71.315C303.738 69.275 301.783 66.725 300.253 63.665C298.808 60.52 298.086 56.5675 298.086 51.8075C298.086 47.0475 298.851 42.755 300.381 38.93C301.996 35.02 304.206 31.705 307.011 28.985C309.901 26.18 313.386 24.0125 317.466 22.4825C321.631 20.9525 326.263 20.1875 331.363 20.1875C336.123 20.1875 341.096 20.8675 346.281 22.2275C351.466 23.5025 356.438 25.415 361.198 27.965L351.253 47.4725Z" fill="#E63B19"/>
<path d="M417.982 44.03V119H392.992V44.03H372.465V22.865H438.51V44.03H417.982ZM502.535 47.4725C499.815 45.2625 497.095 43.6475 494.375 42.6275C491.655 41.5225 489.02 40.97 486.47 40.97C483.24 40.97 480.605 41.735 478.565 43.265C476.525 44.795 475.505 46.7925 475.505 49.2575C475.505 50.9575 476.015 52.36 477.035 53.465C478.055 54.57 479.372 55.5475 480.987 56.3975C482.687 57.1625 484.557 57.8425 486.597 58.4375C488.722 59.0325 490.805 59.67 492.845 60.35C501.005 63.07 506.955 66.725 510.695 71.315C514.52 75.82 516.432 81.7275 516.432 89.0375C516.432 93.9675 515.582 98.43 513.882 102.425C512.267 106.42 509.845 109.862 506.615 112.752C503.47 115.557 499.56 117.725 494.885 119.255C490.295 120.87 485.067 121.678 479.202 121.678C467.047 121.678 455.785 118.065 445.415 110.84L456.125 90.695C459.865 94.01 463.562 96.475 467.217 98.09C470.872 99.705 474.485 100.512 478.055 100.512C482.135 100.512 485.152 99.5775 487.107 97.7075C489.147 95.8375 490.167 93.7125 490.167 91.3325C490.167 89.8875 489.912 88.655 489.402 87.635C488.892 86.53 488.042 85.5525 486.852 84.7025C485.662 83.7675 484.09 82.9175 482.135 82.1525C480.265 81.3875 477.97 80.5375 475.25 79.6025C472.02 78.5825 468.832 77.4775 465.687 76.2875C462.627 75.0125 459.865 73.355 457.4 71.315C455.02 69.275 453.065 66.725 451.535 63.665C450.09 60.52 449.367 56.5675 449.367 51.8075C449.367 47.0475 450.132 42.755 451.662 38.93C453.277 35.02 455.487 31.705 458.292 28.985C461.182 26.18 464.667 24.0125 468.747 22.4825C472.912 20.9525 477.545 20.1875 482.645 20.1875C487.405 20.1875 492.377 20.8675 497.562 22.2275C502.747 23.5025 507.72 25.415 512.48 27.965L502.535 47.4725ZM601.409 54.995C595.629 47.94 588.489 44.4125 579.989 44.4125C576.249 44.4125 572.764 45.0925 569.534 46.4525C566.389 47.8125 563.669 49.6825 561.374 52.0625C559.079 54.3575 557.252 57.12 555.892 60.35C554.617 63.58 553.979 67.065 553.979 70.805C553.979 74.63 554.617 78.1575 555.892 81.3875C557.252 84.6175 559.079 87.4225 561.374 89.8025C563.754 92.1825 566.517 94.0525 569.662 95.4125C572.807 96.7725 576.207 97.4525 579.862 97.4525C587.852 97.4525 595.034 94.0525 601.409 87.2525V116.832L598.859 117.725C595.034 119.085 591.464 120.063 588.149 120.658C584.834 121.338 581.562 121.678 578.332 121.678C571.702 121.678 565.327 120.445 559.207 117.98C553.172 115.43 547.817 111.902 543.142 107.397C538.552 102.807 534.854 97.41 532.049 91.205C529.244 84.915 527.842 78.0725 527.842 70.6775C527.842 63.2825 529.202 56.525 531.922 50.405C534.727 44.2 538.424 38.8875 543.014 34.4675C547.689 29.9625 553.087 26.4775 559.207 24.0125C565.327 21.4625 571.744 20.1875 578.459 20.1875C582.284 20.1875 586.024 20.6125 589.679 21.4625C593.419 22.2275 597.329 23.46 601.409 25.16V54.995Z" fill="#3475D1"/>
<path d="M209.223 146L216.585 128.716H216.622L223.985 146H220.628L219.385 143.033H213.711L212.468 146H209.223ZM214.823 140.362H218.273L217.549 138.656C217.352 138.199 217.166 137.76 216.993 137.339C216.832 136.907 216.678 136.406 216.529 135.837C216.393 136.393 216.245 136.888 216.084 137.321C215.924 137.753 215.744 138.199 215.547 138.656L214.823 140.362ZM230.538 132.313V129.309H242.148V132.313H238.068V146H234.618V132.313H230.538ZM241.659 151.564L245.368 144.108L240.824 134.873H244.385L246.351 138.953C246.524 139.324 246.672 139.664 246.796 139.973C246.932 140.269 247.043 140.56 247.13 140.844C247.228 140.56 247.346 140.269 247.482 139.973C247.618 139.664 247.779 139.324 247.964 138.953L249.967 134.873H253.398L245.127 151.564H241.659ZM254.742 151.564V134.873H257.524V135.967C257.956 135.534 258.463 135.194 259.044 134.947C259.638 134.7 260.287 134.576 260.992 134.576C262.03 134.576 262.97 134.842 263.811 135.373C264.651 135.893 265.319 136.597 265.814 137.488C266.32 138.378 266.574 139.361 266.574 140.436C266.574 141.512 266.32 142.495 265.814 143.385C265.319 144.263 264.651 144.968 263.811 145.499C262.97 146.031 262.03 146.297 260.992 146.297C260.398 146.297 259.848 146.204 259.341 146.019C258.834 145.845 258.377 145.604 257.969 145.295V151.564H254.742ZM260.621 143.459C261.165 143.459 261.659 143.323 262.104 143.051C262.55 142.779 262.902 142.415 263.162 141.957C263.434 141.5 263.57 140.993 263.57 140.436C263.57 139.88 263.434 139.373 263.162 138.916C262.902 138.458 262.55 138.093 262.104 137.821C261.659 137.549 261.165 137.413 260.621 137.413C260.077 137.413 259.582 137.549 259.137 137.821C258.692 138.093 258.334 138.458 258.062 138.916C257.802 139.373 257.672 139.88 257.672 140.436C257.672 140.993 257.802 141.5 258.062 141.957C258.334 142.415 258.692 142.779 259.137 143.051C259.582 143.323 260.077 143.459 260.621 143.459ZM274.227 146.371C272.979 146.371 271.878 146.111 270.926 145.592C269.974 145.073 269.232 144.362 268.701 143.459C268.169 142.544 267.903 141.5 267.903 140.325C267.903 139.2 268.163 138.205 268.682 137.339C269.202 136.461 269.9 135.769 270.778 135.262C271.668 134.755 272.651 134.502 273.727 134.502C274.827 134.502 275.81 134.755 276.675 135.262C277.541 135.757 278.221 136.437 278.715 137.302C279.222 138.168 279.476 139.151 279.476 140.251V141.382H272.688C272.379 141.382 272.082 141.364 271.798 141.327C271.514 141.289 271.229 141.246 270.945 141.197C271.093 141.939 271.458 142.544 272.039 143.014C272.632 143.472 273.387 143.7 274.302 143.7C275.006 143.7 275.637 143.558 276.193 143.274C276.762 142.989 277.226 142.637 277.584 142.217L278.289 145.11C277.732 145.53 277.102 145.845 276.397 146.056C275.705 146.266 274.982 146.371 274.227 146.371ZM270.871 139.249C271.489 139.113 272.095 139.045 272.688 139.045H274.654C275 139.045 275.328 139.058 275.637 139.083C275.946 139.107 276.236 139.151 276.508 139.212C276.323 138.545 275.983 138.019 275.488 137.636C275.006 137.253 274.407 137.061 273.69 137.061C273.01 137.061 272.416 137.259 271.909 137.655C271.415 138.038 271.068 138.569 270.871 139.249ZM286.105 146.371C285.091 146.371 284.127 146.185 283.212 145.815C282.31 145.431 281.586 144.974 281.042 144.442L281.951 140.733C282.384 141.487 282.996 142.118 283.787 142.625C284.578 143.119 285.388 143.367 286.216 143.367C286.896 143.367 287.428 143.181 287.811 142.81C288.207 142.439 288.405 141.988 288.405 141.456C288.405 141.024 288.3 140.665 288.09 140.381C287.892 140.096 287.651 139.861 287.366 139.676C287.094 139.491 286.853 139.348 286.643 139.249L284.677 138.267C284.108 137.982 283.564 137.648 283.045 137.265C282.526 136.869 282.099 136.381 281.766 135.8C281.444 135.219 281.283 134.502 281.283 133.649C281.283 132.709 281.494 131.887 281.914 131.182C282.347 130.477 282.952 129.927 283.731 129.532C284.51 129.136 285.425 128.938 286.476 128.938C287.465 128.938 288.343 129.099 289.11 129.42C289.888 129.729 290.519 130.063 291.001 130.422L290.148 134.038C289.654 133.395 289.06 132.882 288.368 132.499C287.688 132.103 287.008 131.905 286.328 131.905C285.722 131.905 285.252 132.06 284.918 132.369C284.597 132.678 284.436 133.061 284.436 133.519C284.436 133.803 284.498 134.057 284.622 134.279C284.758 134.502 284.949 134.7 285.196 134.873C285.444 135.046 285.734 135.219 286.068 135.392L288.052 136.375C288.386 136.536 288.751 136.746 289.147 137.005C289.542 137.253 289.926 137.568 290.296 137.951C290.667 138.335 290.97 138.798 291.205 139.342C291.44 139.874 291.558 140.511 291.558 141.252C291.558 142.217 291.335 143.088 290.89 143.867C290.445 144.634 289.814 145.246 288.998 145.703C288.195 146.148 287.23 146.371 286.105 146.371ZM298.948 146.371C297.848 146.371 296.84 146.105 295.926 145.573C295.011 145.042 294.281 144.325 293.737 143.422C293.206 142.52 292.94 141.524 292.94 140.436C292.94 139.336 293.206 138.341 293.737 137.451C294.281 136.548 295.011 135.831 295.926 135.299C296.84 134.768 297.848 134.502 298.948 134.502C299.715 134.502 300.438 134.632 301.118 134.891C301.811 135.139 302.423 135.509 302.954 136.004L302.12 139.287C301.811 138.78 301.397 138.341 300.877 137.97C300.37 137.587 299.771 137.395 299.078 137.395C298.497 137.395 297.978 137.531 297.52 137.803C297.063 138.075 296.704 138.44 296.445 138.897C296.185 139.355 296.055 139.868 296.055 140.436C296.055 140.993 296.185 141.506 296.445 141.976C296.704 142.433 297.063 142.798 297.52 143.07C297.978 143.342 298.497 143.478 299.078 143.478C299.771 143.478 300.37 143.292 300.877 142.921C301.397 142.538 301.811 142.093 302.12 141.586L302.954 144.869C302.423 145.363 301.811 145.74 301.118 146C300.438 146.247 299.715 146.371 298.948 146.371ZM304.632 146V134.873H307.525V136.783C307.908 136.14 308.391 135.645 308.972 135.299C309.565 134.941 310.258 134.761 311.049 134.761L311.754 137.617C311.519 137.543 311.253 137.506 310.956 137.506C310.029 137.506 309.281 137.809 308.712 138.415C308.143 139.008 307.859 139.861 307.859 140.974V146H304.632ZM313.197 146V134.873H316.424V146H313.197ZM314.811 133.259C314.329 133.259 313.921 133.092 313.587 132.759C313.253 132.425 313.086 132.017 313.086 131.535C313.086 131.04 313.253 130.632 313.587 130.311C313.921 129.977 314.329 129.81 314.811 129.81C315.305 129.81 315.713 129.977 316.035 130.311C316.369 130.632 316.535 131.04 316.535 131.535C316.535 132.017 316.369 132.425 316.035 132.759C315.713 133.092 315.305 133.259 314.811 133.259ZM318.898 151.564V134.873H321.679V135.967C322.112 135.534 322.619 135.194 323.2 134.947C323.794 134.7 324.443 134.576 325.147 134.576C326.186 134.576 327.126 134.842 327.966 135.373C328.807 135.893 329.475 136.597 329.969 137.488C330.476 138.378 330.73 139.361 330.73 140.436C330.73 141.512 330.476 142.495 329.969 143.385C329.475 144.263 328.807 144.968 327.966 145.499C327.126 146.031 326.186 146.297 325.147 146.297C324.554 146.297 324.004 146.204 323.497 146.019C322.99 145.845 322.533 145.604 322.125 145.295V151.564H318.898ZM324.777 143.459C325.321 143.459 325.815 143.323 326.26 143.051C326.705 142.779 327.058 142.415 327.317 141.957C327.589 141.5 327.725 140.993 327.725 140.436C327.725 139.88 327.589 139.373 327.317 138.916C327.058 138.458 326.705 138.093 326.26 137.821C325.815 137.549 325.321 137.413 324.777 137.413C324.233 137.413 323.738 137.549 323.293 137.821C322.848 138.093 322.489 138.458 322.217 138.916C321.958 139.373 321.828 139.88 321.828 140.436C321.828 140.993 321.958 141.5 322.217 141.957C322.489 142.415 322.848 142.779 323.293 143.051C323.738 143.323 324.233 143.459 324.777 143.459ZM333.366 146V137.432H331.289V134.873H333.422V131.164H336.537V134.873H338.744V137.432H336.593V146H333.366ZM354.573 146.334C353.349 146.334 352.206 146.111 351.142 145.666C350.079 145.209 349.14 144.584 348.324 143.793C347.52 143.002 346.889 142.081 346.432 141.03C345.974 139.979 345.746 138.854 345.746 137.655C345.746 136.455 345.974 135.33 346.432 134.279C346.889 133.228 347.52 132.307 348.324 131.516C349.14 130.725 350.079 130.107 351.142 129.661C352.206 129.204 353.349 128.975 354.573 128.975C355.674 128.975 356.712 129.155 357.689 129.513C358.666 129.872 359.537 130.379 360.304 131.034L359.358 134.928C358.901 134.162 358.27 133.519 357.466 133C356.663 132.468 355.736 132.202 354.685 132.202C353.683 132.202 352.774 132.449 351.958 132.944C351.155 133.426 350.518 134.081 350.048 134.91C349.578 135.726 349.344 136.641 349.344 137.655C349.344 138.656 349.578 139.571 350.048 140.399C350.518 141.228 351.155 141.889 351.958 142.384C352.774 142.866 353.683 143.107 354.685 143.107C355.723 143.107 356.644 142.847 357.448 142.328C358.264 141.796 358.901 141.147 359.358 140.381L360.304 144.275C359.525 144.918 358.647 145.425 357.67 145.796C356.706 146.155 355.674 146.334 354.573 146.334ZM367.564 146.371C366.464 146.371 365.456 146.105 364.541 145.573C363.626 145.042 362.897 144.325 362.353 143.422C361.821 142.52 361.555 141.524 361.555 140.436C361.555 139.336 361.821 138.341 362.353 137.451C362.897 136.548 363.626 135.831 364.541 135.299C365.456 134.768 366.464 134.502 367.564 134.502C368.677 134.502 369.684 134.768 370.587 135.299C371.502 135.831 372.225 136.548 372.757 137.451C373.301 138.341 373.573 139.336 373.573 140.436C373.573 141.524 373.301 142.52 372.757 143.422C372.225 144.325 371.502 145.042 370.587 145.573C369.684 146.105 368.677 146.371 367.564 146.371ZM367.564 143.478C368.12 143.478 368.621 143.342 369.066 143.07C369.524 142.798 369.882 142.433 370.142 141.976C370.414 141.506 370.55 140.993 370.55 140.436C370.55 139.868 370.414 139.355 370.142 138.897C369.882 138.44 369.524 138.075 369.066 137.803C368.621 137.531 368.12 137.395 367.564 137.395C367.008 137.395 366.501 137.531 366.043 137.803C365.598 138.075 365.24 138.44 364.968 138.897C364.708 139.355 364.578 139.868 364.578 140.436C364.578 140.993 364.708 141.506 364.968 141.976C365.24 142.433 365.598 142.798 366.043 143.07C366.501 143.342 367.008 143.478 367.564 143.478ZM375.464 146V134.873H378.357V136.097C378.753 135.577 379.241 135.182 379.822 134.91C380.416 134.638 381.034 134.502 381.677 134.502C382.332 134.502 382.95 134.638 383.532 134.91C384.113 135.182 384.601 135.577 384.997 136.097C385.429 135.577 385.967 135.182 386.61 134.91C387.253 134.638 387.952 134.502 388.706 134.502C389.497 134.502 390.239 134.687 390.931 135.058C391.624 135.417 392.186 135.948 392.619 136.653C393.052 137.345 393.268 138.192 393.268 139.194V146H390.041V139.657C390.041 139.064 389.868 138.539 389.522 138.081C389.176 137.624 388.675 137.395 388.02 137.395C387.673 137.395 387.34 137.481 387.018 137.655C386.709 137.815 386.456 138.063 386.258 138.396C386.072 138.718 385.98 139.126 385.98 139.62V146H382.753V139.657C382.753 139.262 382.672 138.891 382.512 138.545C382.363 138.199 382.134 137.92 381.825 137.71C381.529 137.5 381.164 137.395 380.731 137.395C380.385 137.395 380.051 137.481 379.73 137.655C379.421 137.815 379.167 138.063 378.969 138.396C378.784 138.718 378.691 139.126 378.691 139.62V146H375.464ZM395.493 151.564V134.873H398.275V135.967C398.708 135.534 399.215 135.194 399.796 134.947C400.389 134.7 401.038 134.576 401.743 134.576C402.782 134.576 403.721 134.842 404.562 135.373C405.403 135.893 406.071 136.597 406.565 137.488C407.072 138.378 407.325 139.361 407.325 140.436C407.325 141.512 407.072 142.495 406.565 143.385C406.071 144.263 405.403 144.968 404.562 145.499C403.721 146.031 402.782 146.297 401.743 146.297C401.15 146.297 400.6 146.204 400.093 146.019C399.586 145.845 399.128 145.604 398.72 145.295V151.564H395.493ZM401.372 143.459C401.916 143.459 402.411 143.323 402.856 143.051C403.301 142.779 403.653 142.415 403.913 141.957C404.185 141.5 404.321 140.993 404.321 140.436C404.321 139.88 404.185 139.373 403.913 138.916C403.653 138.458 403.301 138.093 402.856 137.821C402.411 137.549 401.916 137.413 401.372 137.413C400.828 137.413 400.334 137.549 399.889 137.821C399.444 138.093 399.085 138.458 398.813 138.916C398.553 139.373 398.424 139.88 398.424 140.436C398.424 140.993 398.553 141.5 398.813 141.957C399.085 142.415 399.444 142.779 399.889 143.051C400.334 143.323 400.828 143.459 401.372 143.459ZM409.248 146V134.873H412.475V146H409.248ZM410.862 133.259C410.38 133.259 409.972 133.092 409.638 132.759C409.304 132.425 409.137 132.017 409.137 131.535C409.137 131.04 409.304 130.632 409.638 130.311C409.972 129.977 410.38 129.81 410.862 129.81C411.356 129.81 411.764 129.977 412.086 130.311C412.42 130.632 412.587 131.04 412.587 131.535C412.587 132.017 412.42 132.425 412.086 132.759C411.764 133.092 411.356 133.259 410.862 133.259ZM414.986 146V128.196H418.213V146H414.986ZM426.454 146.371C425.205 146.371 424.105 146.111 423.153 145.592C422.201 145.073 421.459 144.362 420.927 143.459C420.396 142.544 420.13 141.5 420.13 140.325C420.13 139.2 420.39 138.205 420.909 137.339C421.428 136.461 422.127 135.769 423.004 135.262C423.895 134.755 424.878 134.502 425.953 134.502C427.054 134.502 428.036 134.755 428.902 135.262C429.767 135.757 430.447 136.437 430.942 137.302C431.449 138.168 431.702 139.151 431.702 140.251V141.382H424.915C424.606 141.382 424.309 141.364 424.024 141.327C423.74 141.289 423.456 141.246 423.171 141.197C423.32 141.939 423.684 142.544 424.266 143.014C424.859 143.472 425.613 143.7 426.528 143.7C427.233 143.7 427.863 143.558 428.42 143.274C428.988 142.989 429.452 142.637 429.811 142.217L430.515 145.11C429.959 145.53 429.328 145.845 428.624 146.056C427.931 146.266 427.208 146.371 426.454 146.371ZM423.097 139.249C423.715 139.113 424.321 139.045 424.915 139.045H426.88C427.227 139.045 427.554 139.058 427.863 139.083C428.172 139.107 428.463 139.151 428.735 139.212C428.55 138.545 428.21 138.019 427.715 137.636C427.233 137.253 426.633 137.061 425.916 137.061C425.236 137.061 424.643 137.259 424.136 137.655C423.641 138.038 423.295 138.569 423.097 139.249ZM433.491 146V134.873H436.384V136.783C436.768 136.14 437.25 135.645 437.831 135.299C438.424 134.941 439.117 134.761 439.908 134.761L440.613 137.617C440.378 137.543 440.112 137.506 439.815 137.506C438.888 137.506 438.14 137.809 437.571 138.415C437.003 139.008 436.718 139.861 436.718 140.974V146H433.491Z" fill="#3475D1"/>
<path d="M453.323 146.593L446.462 129.309H449.985L452.804 136.431C452.94 136.764 453.07 137.117 453.194 137.488C453.33 137.846 453.478 138.285 453.639 138.804C453.799 138.285 453.954 137.846 454.102 137.488C454.263 137.117 454.411 136.764 454.547 136.431L457.737 128.753L460.964 136.431C461.1 136.764 461.249 137.117 461.409 137.488C461.57 137.846 461.731 138.285 461.891 138.804C462.052 138.285 462.201 137.846 462.337 137.488C462.473 137.117 462.602 136.764 462.726 136.431L465.508 129.309H468.865L462.003 146.593L458.553 138.359C458.417 138.025 458.275 137.673 458.127 137.302C457.978 136.931 457.824 136.486 457.663 135.967C457.502 136.486 457.348 136.931 457.199 137.302C457.051 137.661 456.909 138.007 456.773 138.341L453.323 146.593ZM469.09 146V134.873H471.983V136.783C472.366 136.14 472.849 135.645 473.43 135.299C474.023 134.941 474.715 134.761 475.507 134.761L476.211 137.617C475.977 137.543 475.711 137.506 475.414 137.506C474.487 137.506 473.739 137.809 473.17 138.415C472.601 139.008 472.317 139.861 472.317 140.974V146H469.09ZM477.655 146V134.873H480.882V146H477.655ZM479.269 133.259C478.786 133.259 478.378 133.092 478.045 132.759C477.711 132.425 477.544 132.017 477.544 131.535C477.544 131.04 477.711 130.632 478.045 130.311C478.378 129.977 478.786 129.81 479.269 129.81C479.763 129.81 480.171 129.977 480.493 130.311C480.826 130.632 480.993 131.04 480.993 131.535C480.993 132.017 480.826 132.425 480.493 132.759C480.171 133.092 479.763 133.259 479.269 133.259ZM484.654 146V137.432H482.577V134.873H484.709V131.164H487.825V134.873H490.032V137.432H487.881V146H484.654ZM492.999 146V137.432H490.922V134.873H493.055V131.164H496.17V134.873H498.377V137.432H496.226V146H492.999ZM505.266 146.371C504.018 146.371 502.917 146.111 501.965 145.592C501.013 145.073 500.272 144.362 499.74 143.459C499.208 142.544 498.942 141.5 498.942 140.325C498.942 139.2 499.202 138.205 499.721 137.339C500.241 136.461 500.939 135.769 501.817 135.262C502.707 134.755 503.69 134.502 504.766 134.502C505.866 134.502 506.849 134.755 507.714 135.262C508.58 135.757 509.26 136.437 509.754 137.302C510.261 138.168 510.515 139.151 510.515 140.251V141.382H503.727C503.418 141.382 503.121 141.364 502.837 141.327C502.553 141.289 502.268 141.246 501.984 141.197C502.132 141.939 502.497 142.544 503.078 143.014C503.672 143.472 504.426 143.7 505.341 143.7C506.045 143.7 506.676 143.558 507.232 143.274C507.801 142.989 508.265 142.637 508.623 142.217L509.328 145.11C508.772 145.53 508.141 145.845 507.436 146.056C506.744 146.266 506.021 146.371 505.266 146.371ZM501.91 139.249C502.528 139.113 503.134 139.045 503.727 139.045H505.693C506.039 139.045 506.367 139.058 506.676 139.083C506.985 139.107 507.276 139.151 507.548 139.212C507.362 138.545 507.022 138.019 506.528 137.636C506.045 137.253 505.446 137.061 504.729 137.061C504.049 137.061 503.455 137.259 502.948 137.655C502.454 138.038 502.108 138.569 501.91 139.249ZM512.304 146V134.873H515.197V136.097C515.593 135.577 516.081 135.182 516.662 134.91C517.243 134.638 517.868 134.502 518.535 134.502C519.326 134.502 520.062 134.693 520.742 135.077C521.434 135.448 521.991 135.998 522.411 136.727C522.844 137.444 523.06 138.316 523.06 139.342V146H519.833V139.769C519.833 139.151 519.648 138.6 519.277 138.118C518.906 137.636 518.374 137.395 517.682 137.395C517.126 137.395 516.625 137.587 516.18 137.97C515.747 138.341 515.531 138.928 515.531 139.732V146H512.304ZM530.884 146V134.873H534.11V146H530.884ZM532.497 133.259C532.015 133.259 531.607 133.092 531.273 132.759C530.939 132.425 530.772 132.017 530.772 131.535C530.772 131.04 530.939 130.632 531.273 130.311C531.607 129.977 532.015 129.81 532.497 129.81C532.992 129.81 533.4 129.977 533.721 130.311C534.055 130.632 534.222 131.04 534.222 131.535C534.222 132.017 534.055 132.425 533.721 132.759C533.4 133.092 532.992 133.259 532.497 133.259ZM536.584 146V134.873H539.477V136.097C539.873 135.577 540.361 135.182 540.942 134.91C541.523 134.638 542.148 134.502 542.815 134.502C543.607 134.502 544.342 134.693 545.022 135.077C545.715 135.448 546.271 135.998 546.691 136.727C547.124 137.444 547.34 138.316 547.34 139.342V146H544.113V139.769C544.113 139.151 543.928 138.6 543.557 138.118C543.186 137.636 542.655 137.395 541.962 137.395C541.406 137.395 540.905 137.587 540.46 137.97C540.027 138.341 539.811 138.928 539.811 139.732V146H536.584ZM555.739 146V129.309H560.839C562.05 129.309 563.083 129.55 563.936 130.032C564.801 130.515 565.463 131.157 565.92 131.961C566.377 132.752 566.606 133.624 566.606 134.576C566.606 135.441 566.415 136.227 566.031 136.931C565.66 137.636 565.129 138.217 564.436 138.675L568.85 146H565.197L561.488 139.657H558.965V146H555.739ZM558.965 136.876H560.764C561.37 136.876 561.865 136.764 562.248 136.542C562.631 136.307 562.916 136.016 563.101 135.67C563.287 135.312 563.379 134.947 563.379 134.576C563.379 133.921 563.138 133.383 562.656 132.963C562.174 132.53 561.543 132.313 560.764 132.313H558.965V136.876ZM573.721 146.371C572.942 146.371 572.206 146.185 571.514 145.815C570.821 145.431 570.259 144.881 569.826 144.164C569.406 143.435 569.196 142.557 569.196 141.531V134.873H572.423V141.104C572.423 141.722 572.608 142.272 572.979 142.755C573.362 143.237 573.894 143.478 574.574 143.478C575.13 143.478 575.625 143.28 576.057 142.884C576.503 142.476 576.725 141.895 576.725 141.141V134.873H579.952V146H577.022V144.832C576.626 145.326 576.138 145.709 575.557 145.981C574.988 146.241 574.376 146.371 573.721 146.371ZM586.059 146.371C585.305 146.371 584.539 146.247 583.76 146C582.993 145.753 582.393 145.419 581.961 144.999L582.758 141.957C583.117 142.452 583.611 142.884 584.242 143.255C584.885 143.626 585.546 143.812 586.226 143.812C586.684 143.812 587.011 143.725 587.209 143.552C587.419 143.379 587.524 143.169 587.524 142.921C587.524 142.637 587.419 142.433 587.209 142.309C586.999 142.173 586.783 142.062 586.56 141.976L585.002 141.382C584.656 141.246 584.26 141.061 583.815 140.826C583.37 140.591 582.981 140.257 582.647 139.824C582.325 139.392 582.165 138.823 582.165 138.118C582.165 137.475 582.325 136.882 582.647 136.338C582.968 135.794 583.432 135.355 584.038 135.021C584.656 134.675 585.398 134.502 586.263 134.502C587.067 134.502 587.815 134.638 588.507 134.91C589.212 135.182 589.725 135.485 590.047 135.819L589.305 138.749C588.884 138.205 588.384 137.791 587.803 137.506C587.234 137.209 586.69 137.061 586.171 137.061C585.775 137.061 585.484 137.141 585.299 137.302C585.113 137.463 585.021 137.648 585.021 137.859C585.021 138.019 585.083 138.18 585.206 138.341C585.342 138.489 585.565 138.625 585.874 138.749L587.32 139.287C587.741 139.435 588.186 139.633 588.656 139.88C589.138 140.127 589.546 140.473 589.88 140.919C590.213 141.351 590.38 141.951 590.38 142.717C590.38 143.793 589.979 144.671 589.175 145.351C588.384 146.031 587.345 146.371 586.059 146.371ZM593.536 146V137.432H591.459V134.873H593.592V131.164H596.707V134.873H598.914V137.432H596.763V146H593.536Z" fill="#E63B19"/>
</g>
<defs>
<clipPath id="clip0_185_314">
<rect width="602" height="161" fill="white"/>
</clipPath>
</defs>
</svg>
