<svg width="719" height="235" viewBox="0 0 719 235" fill="none" xmlns="http://www.w3.org/2000/svg">
<rect x="119" y="102" width="32" height="32" fill="#E63B19"/>
<path d="M103 46H183C196.255 46 207 56.7452 207 70V150" stroke="#3475D1" stroke-width="16"/>
<path d="M167 190L87 190C73.7452 190 63 179.255 63 166L63 86" stroke="#3475D1" stroke-width="16"/>
<path d="M95 118V78H135" stroke="#E63B19" stroke-width="16"/>
<path d="M175 118V158H135" stroke="#E63B19" stroke-width="16"/>
<path d="M151 78H175V102" stroke="#E63B19" stroke-width="16"/>
<path d="M183 190V190C196.255 190 207 179.255 207 166V166" stroke="#3475D1" stroke-width="16"/>
<path d="M87 46V46C73.7452 46 63 56.7452 63 70V70" stroke="#3475D1" stroke-width="16"/>
<path d="M119 158H95V134" stroke="#E63B19" stroke-width="16"/>
<path d="M288.063 102.832H292.78C297.71 102.832 301.493 101.812 304.128 99.7725C306.763 97.7325 308.08 94.8 308.08 90.975C308.08 87.15 306.763 84.2175 304.128 82.1775C301.493 80.1375 297.71 79.1175 292.78 79.1175H288.063V102.832ZM343.015 156H311.905L288.063 119.025V156H263.073V59.865H301.96C307.315 59.865 311.99 60.6725 315.985 62.2875C319.98 63.8175 323.253 65.9425 325.803 68.6625C328.438 71.3825 330.393 74.5275 331.668 78.0975C333.028 81.6675 333.708 85.4925 333.708 89.5725C333.708 96.8825 331.923 102.832 328.353 107.422C324.868 111.927 319.683 114.987 312.798 116.602L343.015 156ZM406.253 84.4725C403.533 82.2625 400.813 80.6475 398.093 79.6275C395.373 78.5225 392.738 77.97 390.188 77.97C386.958 77.97 384.323 78.735 382.283 80.265C380.243 81.795 379.223 83.7925 379.223 86.2575C379.223 87.9575 379.733 89.36 380.753 90.465C381.773 91.57 383.091 92.5475 384.706 93.3975C386.406 94.1625 388.276 94.8425 390.316 95.4375C392.441 96.0325 394.523 96.67 396.563 97.35C404.723 100.07 410.673 103.725 414.413 108.315C418.238 112.82 420.151 118.727 420.151 126.037C420.151 130.967 419.301 135.43 417.601 139.425C415.986 143.42 413.563 146.862 410.333 149.752C407.188 152.557 403.278 154.725 398.603 156.255C394.013 157.87 388.786 158.678 382.921 158.678C370.766 158.678 359.503 155.065 349.133 147.84L359.843 127.695C363.583 131.01 367.281 133.475 370.936 135.09C374.591 136.705 378.203 137.512 381.773 137.512C385.853 137.512 388.871 136.577 390.826 134.707C392.866 132.837 393.886 130.712 393.886 128.332C393.886 126.887 393.631 125.655 393.121 124.635C392.611 123.53 391.761 122.552 390.571 121.702C389.381 120.767 387.808 119.917 385.853 119.152C383.983 118.387 381.688 117.537 378.968 116.602C375.738 115.582 372.551 114.477 369.406 113.287C366.346 112.012 363.583 110.355 361.118 108.315C358.738 106.275 356.783 103.725 355.253 100.665C353.808 97.52 353.086 93.5675 353.086 88.8075C353.086 84.0475 353.851 79.755 355.381 75.93C356.996 72.02 359.206 68.705 362.011 65.985C364.901 63.18 368.386 61.0125 372.466 59.4825C376.631 57.9525 381.263 57.1875 386.363 57.1875C391.123 57.1875 396.096 57.8675 401.281 59.2275C406.466 60.5025 411.438 62.415 416.198 64.965L406.253 84.4725Z" fill="#E63B19"/>
<path d="M472.982 81.03V156H447.992V81.03H427.465V59.865H493.51V81.03H472.982ZM557.535 84.4725C554.815 82.2625 552.095 80.6475 549.375 79.6275C546.655 78.5225 544.02 77.97 541.47 77.97C538.24 77.97 535.605 78.735 533.565 80.265C531.525 81.795 530.505 83.7925 530.505 86.2575C530.505 87.9575 531.015 89.36 532.035 90.465C533.055 91.57 534.372 92.5475 535.987 93.3975C537.687 94.1625 539.557 94.8425 541.597 95.4375C543.722 96.0325 545.805 96.67 547.845 97.35C556.005 100.07 561.955 103.725 565.695 108.315C569.52 112.82 571.432 118.727 571.432 126.037C571.432 130.967 570.582 135.43 568.882 139.425C567.267 143.42 564.845 146.862 561.615 149.752C558.47 152.557 554.56 154.725 549.885 156.255C545.295 157.87 540.067 158.678 534.202 158.678C522.047 158.678 510.785 155.065 500.415 147.84L511.125 127.695C514.865 131.01 518.562 133.475 522.217 135.09C525.872 136.705 529.485 137.512 533.055 137.512C537.135 137.512 540.152 136.577 542.107 134.707C544.147 132.837 545.167 130.712 545.167 128.332C545.167 126.887 544.912 125.655 544.402 124.635C543.892 123.53 543.042 122.552 541.852 121.702C540.662 120.767 539.09 119.917 537.135 119.152C535.265 118.387 532.97 117.537 530.25 116.602C527.02 115.582 523.832 114.477 520.687 113.287C517.627 112.012 514.865 110.355 512.4 108.315C510.02 106.275 508.065 103.725 506.535 100.665C505.09 97.52 504.367 93.5675 504.367 88.8075C504.367 84.0475 505.132 79.755 506.662 75.93C508.277 72.02 510.487 68.705 513.292 65.985C516.182 63.18 519.667 61.0125 523.747 59.4825C527.912 57.9525 532.545 57.1875 537.645 57.1875C542.405 57.1875 547.377 57.8675 552.562 59.2275C557.747 60.5025 562.72 62.415 567.48 64.965L557.535 84.4725ZM656.409 91.995C650.629 84.94 643.489 81.4125 634.989 81.4125C631.249 81.4125 627.764 82.0925 624.534 83.4525C621.389 84.8125 618.669 86.6825 616.374 89.0625C614.079 91.3575 612.252 94.12 610.892 97.35C609.617 100.58 608.979 104.065 608.979 107.805C608.979 111.63 609.617 115.157 610.892 118.387C612.252 121.617 614.079 124.422 616.374 126.802C618.754 129.182 621.517 131.052 624.662 132.412C627.807 133.772 631.207 134.452 634.862 134.452C642.852 134.452 650.034 131.052 656.409 124.252V153.832L653.859 154.725C650.034 156.085 646.464 157.063 643.149 157.658C639.834 158.338 636.562 158.678 633.332 158.678C626.702 158.678 620.327 157.445 614.207 154.98C608.172 152.43 602.817 148.902 598.142 144.397C593.552 139.807 589.854 134.41 587.049 128.205C584.244 121.915 582.842 115.072 582.842 107.677C582.842 100.282 584.202 93.525 586.922 87.405C589.727 81.2 593.424 75.8875 598.014 71.4675C602.689 66.9625 608.087 63.4775 614.207 61.0125C620.327 58.4625 626.744 57.1875 633.459 57.1875C637.284 57.1875 641.024 57.6125 644.679 58.4625C648.419 59.2275 652.329 60.46 656.409 62.16V91.995Z" fill="#3475D1"/>
<path d="M264.223 183L271.585 165.716H271.622L278.985 183H275.628L274.385 180.033H268.711L267.468 183H264.223ZM269.823 177.362H273.273L272.549 175.656C272.352 175.199 272.166 174.76 271.993 174.339C271.832 173.907 271.678 173.406 271.529 172.837C271.393 173.393 271.245 173.888 271.084 174.321C270.924 174.753 270.744 175.199 270.547 175.656L269.823 177.362ZM285.538 169.313V166.309H297.148V169.313H293.068V183H289.618V169.313H285.538ZM296.659 188.564L300.368 181.108L295.824 171.873H299.385L301.351 175.953C301.524 176.324 301.672 176.664 301.796 176.973C301.932 177.269 302.043 177.56 302.13 177.844C302.228 177.56 302.346 177.269 302.482 176.973C302.618 176.664 302.779 176.324 302.964 175.953L304.967 171.873H308.398L300.127 188.564H296.659ZM309.742 188.564V171.873H312.524V172.967C312.956 172.534 313.463 172.194 314.044 171.947C314.638 171.7 315.287 171.576 315.992 171.576C317.03 171.576 317.97 171.842 318.811 172.373C319.651 172.893 320.319 173.597 320.814 174.488C321.32 175.378 321.574 176.361 321.574 177.436C321.574 178.512 321.32 179.495 320.814 180.385C320.319 181.263 319.651 181.968 318.811 182.499C317.97 183.031 317.03 183.297 315.992 183.297C315.398 183.297 314.848 183.204 314.341 183.019C313.834 182.845 313.377 182.604 312.969 182.295V188.564H309.742ZM315.621 180.459C316.165 180.459 316.659 180.323 317.104 180.051C317.55 179.779 317.902 179.415 318.162 178.957C318.434 178.5 318.57 177.993 318.57 177.436C318.57 176.88 318.434 176.373 318.162 175.916C317.902 175.458 317.55 175.093 317.104 174.821C316.659 174.549 316.165 174.413 315.621 174.413C315.077 174.413 314.582 174.549 314.137 174.821C313.692 175.093 313.334 175.458 313.062 175.916C312.802 176.373 312.672 176.88 312.672 177.436C312.672 177.993 312.802 178.5 313.062 178.957C313.334 179.415 313.692 179.779 314.137 180.051C314.582 180.323 315.077 180.459 315.621 180.459ZM329.227 183.371C327.979 183.371 326.878 183.111 325.926 182.592C324.974 182.073 324.232 181.362 323.701 180.459C323.169 179.544 322.903 178.5 322.903 177.325C322.903 176.2 323.163 175.205 323.682 174.339C324.202 173.461 324.9 172.769 325.778 172.262C326.668 171.755 327.651 171.502 328.727 171.502C329.827 171.502 330.81 171.755 331.675 172.262C332.541 172.757 333.221 173.437 333.715 174.302C334.222 175.168 334.476 176.151 334.476 177.251V178.382H327.688C327.379 178.382 327.082 178.364 326.798 178.327C326.514 178.289 326.229 178.246 325.945 178.197C326.093 178.939 326.458 179.544 327.039 180.014C327.632 180.472 328.387 180.7 329.302 180.7C330.006 180.7 330.637 180.558 331.193 180.274C331.762 179.989 332.226 179.637 332.584 179.217L333.289 182.11C332.732 182.53 332.102 182.845 331.397 183.056C330.705 183.266 329.982 183.371 329.227 183.371ZM325.871 176.249C326.489 176.113 327.095 176.045 327.688 176.045H329.654C330 176.045 330.328 176.058 330.637 176.083C330.946 176.107 331.236 176.151 331.508 176.212C331.323 175.545 330.983 175.019 330.488 174.636C330.006 174.253 329.407 174.061 328.69 174.061C328.01 174.061 327.416 174.259 326.909 174.655C326.415 175.038 326.068 175.569 325.871 176.249ZM341.105 183.371C340.091 183.371 339.127 183.185 338.212 182.815C337.31 182.431 336.586 181.974 336.042 181.442L336.951 177.733C337.384 178.487 337.996 179.118 338.787 179.625C339.578 180.119 340.388 180.367 341.216 180.367C341.896 180.367 342.428 180.181 342.811 179.81C343.207 179.439 343.405 178.988 343.405 178.456C343.405 178.024 343.3 177.665 343.09 177.381C342.892 177.096 342.651 176.861 342.366 176.676C342.094 176.491 341.853 176.348 341.643 176.249L339.677 175.267C339.108 174.982 338.564 174.648 338.045 174.265C337.526 173.869 337.099 173.381 336.766 172.8C336.444 172.219 336.283 171.502 336.283 170.649C336.283 169.709 336.494 168.887 336.914 168.182C337.347 167.477 337.952 166.927 338.731 166.532C339.51 166.136 340.425 165.938 341.476 165.938C342.465 165.938 343.343 166.099 344.11 166.42C344.888 166.729 345.519 167.063 346.001 167.422L345.148 171.038C344.654 170.395 344.06 169.882 343.368 169.499C342.688 169.103 342.008 168.905 341.328 168.905C340.722 168.905 340.252 169.06 339.918 169.369C339.597 169.678 339.436 170.061 339.436 170.519C339.436 170.803 339.498 171.057 339.622 171.279C339.758 171.502 339.949 171.7 340.196 171.873C340.444 172.046 340.734 172.219 341.068 172.392L343.052 173.375C343.386 173.536 343.751 173.746 344.147 174.005C344.542 174.253 344.926 174.568 345.296 174.951C345.667 175.335 345.97 175.798 346.205 176.342C346.44 176.874 346.558 177.511 346.558 178.252C346.558 179.217 346.335 180.088 345.89 180.867C345.445 181.634 344.814 182.246 343.998 182.703C343.195 183.148 342.23 183.371 341.105 183.371ZM353.948 183.371C352.848 183.371 351.84 183.105 350.926 182.573C350.011 182.042 349.281 181.325 348.737 180.422C348.206 179.52 347.94 178.524 347.94 177.436C347.94 176.336 348.206 175.341 348.737 174.451C349.281 173.548 350.011 172.831 350.926 172.299C351.84 171.768 352.848 171.502 353.948 171.502C354.715 171.502 355.438 171.632 356.118 171.891C356.811 172.139 357.423 172.509 357.954 173.004L357.12 176.287C356.811 175.78 356.397 175.341 355.877 174.97C355.37 174.587 354.771 174.395 354.078 174.395C353.497 174.395 352.978 174.531 352.52 174.803C352.063 175.075 351.704 175.44 351.445 175.897C351.185 176.355 351.055 176.868 351.055 177.436C351.055 177.993 351.185 178.506 351.445 178.976C351.704 179.433 352.063 179.798 352.52 180.07C352.978 180.342 353.497 180.478 354.078 180.478C354.771 180.478 355.37 180.292 355.877 179.921C356.397 179.538 356.811 179.093 357.12 178.586L357.954 181.869C357.423 182.363 356.811 182.74 356.118 183C355.438 183.247 354.715 183.371 353.948 183.371ZM359.632 183V171.873H362.525V173.783C362.908 173.14 363.391 172.645 363.972 172.299C364.565 171.941 365.258 171.761 366.049 171.761L366.754 174.617C366.519 174.543 366.253 174.506 365.956 174.506C365.029 174.506 364.281 174.809 363.712 175.415C363.143 176.008 362.859 176.861 362.859 177.974V183H359.632ZM368.197 183V171.873H371.424V183H368.197ZM369.811 170.259C369.329 170.259 368.921 170.092 368.587 169.759C368.253 169.425 368.086 169.017 368.086 168.535C368.086 168.04 368.253 167.632 368.587 167.311C368.921 166.977 369.329 166.81 369.811 166.81C370.305 166.81 370.713 166.977 371.035 167.311C371.369 167.632 371.535 168.04 371.535 168.535C371.535 169.017 371.369 169.425 371.035 169.759C370.713 170.092 370.305 170.259 369.811 170.259ZM373.898 188.564V171.873H376.679V172.967C377.112 172.534 377.619 172.194 378.2 171.947C378.794 171.7 379.443 171.576 380.147 171.576C381.186 171.576 382.126 171.842 382.966 172.373C383.807 172.893 384.475 173.597 384.969 174.488C385.476 175.378 385.73 176.361 385.73 177.436C385.73 178.512 385.476 179.495 384.969 180.385C384.475 181.263 383.807 181.968 382.966 182.499C382.126 183.031 381.186 183.297 380.147 183.297C379.554 183.297 379.004 183.204 378.497 183.019C377.99 182.845 377.533 182.604 377.125 182.295V188.564H373.898ZM379.777 180.459C380.321 180.459 380.815 180.323 381.26 180.051C381.705 179.779 382.058 179.415 382.317 178.957C382.589 178.5 382.725 177.993 382.725 177.436C382.725 176.88 382.589 176.373 382.317 175.916C382.058 175.458 381.705 175.093 381.26 174.821C380.815 174.549 380.321 174.413 379.777 174.413C379.233 174.413 378.738 174.549 378.293 174.821C377.848 175.093 377.489 175.458 377.217 175.916C376.958 176.373 376.828 176.88 376.828 177.436C376.828 177.993 376.958 178.5 377.217 178.957C377.489 179.415 377.848 179.779 378.293 180.051C378.738 180.323 379.233 180.459 379.777 180.459ZM388.366 183V174.432H386.289V171.873H388.422V168.164H391.537V171.873H393.744V174.432H391.593V183H388.366ZM409.573 183.334C408.349 183.334 407.206 183.111 406.142 182.666C405.079 182.209 404.14 181.584 403.324 180.793C402.52 180.002 401.889 179.081 401.432 178.03C400.974 176.979 400.746 175.854 400.746 174.655C400.746 173.455 400.974 172.33 401.432 171.279C401.889 170.228 402.52 169.307 403.324 168.516C404.14 167.725 405.079 167.107 406.142 166.661C407.206 166.204 408.349 165.975 409.573 165.975C410.674 165.975 411.712 166.155 412.689 166.513C413.666 166.872 414.537 167.379 415.304 168.034L414.358 171.928C413.901 171.162 413.27 170.519 412.466 170C411.663 169.468 410.736 169.202 409.685 169.202C408.683 169.202 407.774 169.449 406.958 169.944C406.155 170.426 405.518 171.081 405.048 171.91C404.578 172.726 404.344 173.641 404.344 174.655C404.344 175.656 404.578 176.571 405.048 177.399C405.518 178.228 406.155 178.889 406.958 179.384C407.774 179.866 408.683 180.107 409.685 180.107C410.723 180.107 411.644 179.847 412.448 179.328C413.264 178.796 413.901 178.147 414.358 177.381L415.304 181.275C414.525 181.918 413.647 182.425 412.67 182.796C411.706 183.155 410.674 183.334 409.573 183.334ZM422.564 183.371C421.464 183.371 420.456 183.105 419.541 182.573C418.626 182.042 417.897 181.325 417.353 180.422C416.821 179.52 416.555 178.524 416.555 177.436C416.555 176.336 416.821 175.341 417.353 174.451C417.897 173.548 418.626 172.831 419.541 172.299C420.456 171.768 421.464 171.502 422.564 171.502C423.677 171.502 424.684 171.768 425.587 172.299C426.502 172.831 427.225 173.548 427.757 174.451C428.301 175.341 428.573 176.336 428.573 177.436C428.573 178.524 428.301 179.52 427.757 180.422C427.225 181.325 426.502 182.042 425.587 182.573C424.684 183.105 423.677 183.371 422.564 183.371ZM422.564 180.478C423.12 180.478 423.621 180.342 424.066 180.07C424.524 179.798 424.882 179.433 425.142 178.976C425.414 178.506 425.55 177.993 425.55 177.436C425.55 176.868 425.414 176.355 425.142 175.897C424.882 175.44 424.524 175.075 424.066 174.803C423.621 174.531 423.12 174.395 422.564 174.395C422.008 174.395 421.501 174.531 421.043 174.803C420.598 175.075 420.24 175.44 419.968 175.897C419.708 176.355 419.578 176.868 419.578 177.436C419.578 177.993 419.708 178.506 419.968 178.976C420.24 179.433 420.598 179.798 421.043 180.07C421.501 180.342 422.008 180.478 422.564 180.478ZM430.464 183V171.873H433.357V173.097C433.753 172.577 434.241 172.182 434.822 171.91C435.416 171.638 436.034 171.502 436.677 171.502C437.332 171.502 437.95 171.638 438.532 171.91C439.113 172.182 439.601 172.577 439.997 173.097C440.429 172.577 440.967 172.182 441.61 171.91C442.253 171.638 442.952 171.502 443.706 171.502C444.497 171.502 445.239 171.687 445.931 172.058C446.624 172.417 447.186 172.948 447.619 173.653C448.052 174.345 448.268 175.192 448.268 176.194V183H445.041V176.657C445.041 176.064 444.868 175.539 444.522 175.081C444.176 174.624 443.675 174.395 443.02 174.395C442.673 174.395 442.34 174.481 442.018 174.655C441.709 174.815 441.456 175.063 441.258 175.396C441.072 175.718 440.98 176.126 440.98 176.62V183H437.753V176.657C437.753 176.262 437.672 175.891 437.512 175.545C437.363 175.199 437.134 174.92 436.825 174.71C436.529 174.5 436.164 174.395 435.731 174.395C435.385 174.395 435.051 174.481 434.73 174.655C434.421 174.815 434.167 175.063 433.969 175.396C433.784 175.718 433.691 176.126 433.691 176.62V183H430.464ZM450.493 188.564V171.873H453.275V172.967C453.708 172.534 454.215 172.194 454.796 171.947C455.389 171.7 456.038 171.576 456.743 171.576C457.782 171.576 458.721 171.842 459.562 172.373C460.403 172.893 461.071 173.597 461.565 174.488C462.072 175.378 462.325 176.361 462.325 177.436C462.325 178.512 462.072 179.495 461.565 180.385C461.071 181.263 460.403 181.968 459.562 182.499C458.721 183.031 457.782 183.297 456.743 183.297C456.15 183.297 455.6 183.204 455.093 183.019C454.586 182.845 454.128 182.604 453.72 182.295V188.564H450.493ZM456.372 180.459C456.916 180.459 457.411 180.323 457.856 180.051C458.301 179.779 458.653 179.415 458.913 178.957C459.185 178.5 459.321 177.993 459.321 177.436C459.321 176.88 459.185 176.373 458.913 175.916C458.653 175.458 458.301 175.093 457.856 174.821C457.411 174.549 456.916 174.413 456.372 174.413C455.828 174.413 455.334 174.549 454.889 174.821C454.444 175.093 454.085 175.458 453.813 175.916C453.553 176.373 453.424 176.88 453.424 177.436C453.424 177.993 453.553 178.5 453.813 178.957C454.085 179.415 454.444 179.779 454.889 180.051C455.334 180.323 455.828 180.459 456.372 180.459ZM464.248 183V171.873H467.475V183H464.248ZM465.862 170.259C465.38 170.259 464.972 170.092 464.638 169.759C464.304 169.425 464.137 169.017 464.137 168.535C464.137 168.04 464.304 167.632 464.638 167.311C464.972 166.977 465.38 166.81 465.862 166.81C466.356 166.81 466.764 166.977 467.086 167.311C467.42 167.632 467.587 168.04 467.587 168.535C467.587 169.017 467.42 169.425 467.086 169.759C466.764 170.092 466.356 170.259 465.862 170.259ZM469.986 183V165.196H473.213V183H469.986ZM481.454 183.371C480.205 183.371 479.105 183.111 478.153 182.592C477.201 182.073 476.459 181.362 475.927 180.459C475.396 179.544 475.13 178.5 475.13 177.325C475.13 176.2 475.39 175.205 475.909 174.339C476.428 173.461 477.127 172.769 478.004 172.262C478.895 171.755 479.878 171.502 480.953 171.502C482.054 171.502 483.036 171.755 483.902 172.262C484.767 172.757 485.447 173.437 485.942 174.302C486.449 175.168 486.702 176.151 486.702 177.251V178.382H479.915C479.606 178.382 479.309 178.364 479.024 178.327C478.74 178.289 478.456 178.246 478.171 178.197C478.32 178.939 478.684 179.544 479.266 180.014C479.859 180.472 480.613 180.7 481.528 180.7C482.233 180.7 482.863 180.558 483.42 180.274C483.988 179.989 484.452 179.637 484.811 179.217L485.515 182.11C484.959 182.53 484.328 182.845 483.624 183.056C482.931 183.266 482.208 183.371 481.454 183.371ZM478.097 176.249C478.715 176.113 479.321 176.045 479.915 176.045H481.88C482.227 176.045 482.554 176.058 482.863 176.083C483.172 176.107 483.463 176.151 483.735 176.212C483.55 175.545 483.21 175.019 482.715 174.636C482.233 174.253 481.633 174.061 480.916 174.061C480.236 174.061 479.643 174.259 479.136 174.655C478.641 175.038 478.295 175.569 478.097 176.249ZM488.491 183V171.873H491.384V173.783C491.768 173.14 492.25 172.645 492.831 172.299C493.424 171.941 494.117 171.761 494.908 171.761L495.613 174.617C495.378 174.543 495.112 174.506 494.815 174.506C493.888 174.506 493.14 174.809 492.571 175.415C492.003 176.008 491.718 176.861 491.718 177.974V183H488.491Z" fill="#3475D1"/>
<path d="M508.323 183.593L501.462 166.309H504.985L507.804 173.431C507.94 173.764 508.07 174.117 508.194 174.488C508.33 174.846 508.478 175.285 508.639 175.804C508.799 175.285 508.954 174.846 509.102 174.488C509.263 174.117 509.411 173.764 509.547 173.431L512.737 165.753L515.964 173.431C516.1 173.764 516.249 174.117 516.409 174.488C516.57 174.846 516.731 175.285 516.891 175.804C517.052 175.285 517.201 174.846 517.337 174.488C517.473 174.117 517.602 173.764 517.726 173.431L520.508 166.309H523.865L517.003 183.593L513.553 175.359C513.417 175.025 513.275 174.673 513.127 174.302C512.978 173.931 512.824 173.486 512.663 172.967C512.502 173.486 512.348 173.931 512.199 174.302C512.051 174.661 511.909 175.007 511.773 175.341L508.323 183.593ZM524.09 183V171.873H526.983V173.783C527.366 173.14 527.849 172.645 528.43 172.299C529.023 171.941 529.715 171.761 530.507 171.761L531.211 174.617C530.977 174.543 530.711 174.506 530.414 174.506C529.487 174.506 528.739 174.809 528.17 175.415C527.601 176.008 527.317 176.861 527.317 177.974V183H524.09ZM532.655 183V171.873H535.882V183H532.655ZM534.269 170.259C533.786 170.259 533.378 170.092 533.045 169.759C532.711 169.425 532.544 169.017 532.544 168.535C532.544 168.04 532.711 167.632 533.045 167.311C533.378 166.977 533.786 166.81 534.269 166.81C534.763 166.81 535.171 166.977 535.493 167.311C535.826 167.632 535.993 168.04 535.993 168.535C535.993 169.017 535.826 169.425 535.493 169.759C535.171 170.092 534.763 170.259 534.269 170.259ZM539.654 183V174.432H537.577V171.873H539.709V168.164H542.825V171.873H545.032V174.432H542.881V183H539.654ZM547.999 183V174.432H545.922V171.873H548.055V168.164H551.17V171.873H553.377V174.432H551.226V183H547.999ZM560.266 183.371C559.018 183.371 557.917 183.111 556.965 182.592C556.013 182.073 555.272 181.362 554.74 180.459C554.208 179.544 553.942 178.5 553.942 177.325C553.942 176.2 554.202 175.205 554.721 174.339C555.241 173.461 555.939 172.769 556.817 172.262C557.707 171.755 558.69 171.502 559.766 171.502C560.866 171.502 561.849 171.755 562.714 172.262C563.58 172.757 564.26 173.437 564.754 174.302C565.261 175.168 565.515 176.151 565.515 177.251V178.382H558.727C558.418 178.382 558.121 178.364 557.837 178.327C557.553 178.289 557.268 178.246 556.984 178.197C557.132 178.939 557.497 179.544 558.078 180.014C558.672 180.472 559.426 180.7 560.341 180.7C561.045 180.7 561.676 180.558 562.232 180.274C562.801 179.989 563.265 179.637 563.623 179.217L564.328 182.11C563.772 182.53 563.141 182.845 562.436 183.056C561.744 183.266 561.021 183.371 560.266 183.371ZM556.91 176.249C557.528 176.113 558.134 176.045 558.727 176.045H560.693C561.039 176.045 561.367 176.058 561.676 176.083C561.985 176.107 562.276 176.151 562.548 176.212C562.362 175.545 562.022 175.019 561.528 174.636C561.045 174.253 560.446 174.061 559.729 174.061C559.049 174.061 558.455 174.259 557.948 174.655C557.454 175.038 557.108 175.569 556.91 176.249ZM567.304 183V171.873H570.197V173.097C570.593 172.577 571.081 172.182 571.662 171.91C572.243 171.638 572.868 171.502 573.535 171.502C574.326 171.502 575.062 171.693 575.742 172.077C576.434 172.448 576.991 172.998 577.411 173.727C577.844 174.444 578.06 175.316 578.06 176.342V183H574.833V176.769C574.833 176.151 574.648 175.6 574.277 175.118C573.906 174.636 573.374 174.395 572.682 174.395C572.126 174.395 571.625 174.587 571.18 174.97C570.747 175.341 570.531 175.928 570.531 176.732V183H567.304ZM585.884 183V171.873H589.11V183H585.884ZM587.497 170.259C587.015 170.259 586.607 170.092 586.273 169.759C585.939 169.425 585.772 169.017 585.772 168.535C585.772 168.04 585.939 167.632 586.273 167.311C586.607 166.977 587.015 166.81 587.497 166.81C587.992 166.81 588.4 166.977 588.721 167.311C589.055 167.632 589.222 168.04 589.222 168.535C589.222 169.017 589.055 169.425 588.721 169.759C588.4 170.092 587.992 170.259 587.497 170.259ZM591.584 183V171.873H594.477V173.097C594.873 172.577 595.361 172.182 595.942 171.91C596.523 171.638 597.148 171.502 597.815 171.502C598.607 171.502 599.342 171.693 600.022 172.077C600.715 172.448 601.271 172.998 601.691 173.727C602.124 174.444 602.34 175.316 602.34 176.342V183H599.113V176.769C599.113 176.151 598.928 175.6 598.557 175.118C598.186 174.636 597.655 174.395 596.962 174.395C596.406 174.395 595.905 174.587 595.46 174.97C595.027 175.341 594.811 175.928 594.811 176.732V183H591.584ZM610.739 183V166.309H615.839C617.05 166.309 618.083 166.55 618.936 167.032C619.801 167.515 620.463 168.157 620.92 168.961C621.377 169.752 621.606 170.624 621.606 171.576C621.606 172.441 621.415 173.227 621.031 173.931C620.66 174.636 620.129 175.217 619.436 175.675L623.85 183H620.197L616.488 176.657H613.965V183H610.739ZM613.965 173.876H615.764C616.37 173.876 616.865 173.764 617.248 173.542C617.631 173.307 617.916 173.016 618.101 172.67C618.287 172.312 618.379 171.947 618.379 171.576C618.379 170.921 618.138 170.383 617.656 169.963C617.174 169.53 616.543 169.313 615.764 169.313H613.965V173.876ZM628.721 183.371C627.942 183.371 627.206 183.185 626.514 182.815C625.821 182.431 625.259 181.881 624.826 181.164C624.406 180.435 624.196 179.557 624.196 178.531V171.873H627.423V178.104C627.423 178.722 627.608 179.272 627.979 179.755C628.362 180.237 628.894 180.478 629.574 180.478C630.13 180.478 630.625 180.28 631.057 179.884C631.503 179.476 631.725 178.895 631.725 178.141V171.873H634.952V183H632.022V181.832C631.626 182.326 631.138 182.709 630.557 182.981C629.988 183.241 629.376 183.371 628.721 183.371ZM641.059 183.371C640.305 183.371 639.539 183.247 638.76 183C637.993 182.753 637.393 182.419 636.961 181.999L637.758 178.957C638.117 179.452 638.611 179.884 639.242 180.255C639.885 180.626 640.546 180.812 641.226 180.812C641.684 180.812 642.011 180.725 642.209 180.552C642.419 180.379 642.524 180.169 642.524 179.921C642.524 179.637 642.419 179.433 642.209 179.309C641.999 179.173 641.783 179.062 641.56 178.976L640.002 178.382C639.656 178.246 639.26 178.061 638.815 177.826C638.37 177.591 637.981 177.257 637.647 176.824C637.325 176.392 637.165 175.823 637.165 175.118C637.165 174.475 637.325 173.882 637.647 173.338C637.968 172.794 638.432 172.355 639.038 172.021C639.656 171.675 640.398 171.502 641.263 171.502C642.067 171.502 642.815 171.638 643.507 171.91C644.212 172.182 644.725 172.485 645.047 172.819L644.305 175.749C643.884 175.205 643.384 174.791 642.803 174.506C642.234 174.209 641.69 174.061 641.171 174.061C640.775 174.061 640.484 174.141 640.299 174.302C640.113 174.463 640.021 174.648 640.021 174.859C640.021 175.019 640.083 175.18 640.206 175.341C640.342 175.489 640.565 175.625 640.874 175.749L642.32 176.287C642.741 176.435 643.186 176.633 643.656 176.88C644.138 177.127 644.546 177.473 644.88 177.919C645.213 178.351 645.38 178.951 645.38 179.717C645.38 180.793 644.979 181.671 644.175 182.351C643.384 183.031 642.345 183.371 641.059 183.371ZM648.536 183V174.432H646.459V171.873H648.592V168.164H651.707V171.873H653.914V174.432H651.763V183H648.536Z" fill="#E63B19"/>
</svg>
